<svg width="329" height="46" viewBox="0 0 329 46" fill="none" xmlns="http://www.w3.org/2000/svg">
<mask id="path-1-inside-1_411_51" fill="white">
<path fill-rule="evenodd" clip-rule="evenodd" d="M0 23C0 10.2975 10.2975 0 23 0H73C82.8893 0 91.3209 6.24141 94.5705 15H98.4295C101.679 6.24141 110.111 0 120 0H193C202.889 0 211.321 6.24141 214.571 15H218.429C221.679 6.24141 230.111 0 240 0H306C318.703 0 329 10.2975 329 23C329 35.7025 318.703 46 306 46H240C229.738 46 221.046 39.2797 218.085 30H214.915C211.954 39.2797 203.262 46 193 46H120C109.738 46 101.046 39.2797 98.0846 30H94.9154C91.9539 39.2797 83.2618 46 73 46H23C10.2974 46 0 35.7025 0 23Z"/>
</mask>
<path fill-rule="evenodd" clip-rule="evenodd" d="M0 23C0 10.2975 10.2975 0 23 0H73C82.8893 0 91.3209 6.24141 94.5705 15H98.4295C101.679 6.24141 110.111 0 120 0H193C202.889 0 211.321 6.24141 214.571 15H218.429C221.679 6.24141 230.111 0 240 0H306C318.703 0 329 10.2975 329 23C329 35.7025 318.703 46 306 46H240C229.738 46 221.046 39.2797 218.085 30H214.915C211.954 39.2797 203.262 46 193 46H120C109.738 46 101.046 39.2797 98.0846 30H94.9154C91.9539 39.2797 83.2618 46 73 46H23C10.2974 46 0 35.7025 0 23Z" fill="white"/>
<path d="M94.5705 15L93.4878 15.4017L93.7672 16.1549H94.5705V15ZM98.4295 15V16.1549H99.2328L99.5122 15.4017L98.4295 15ZM214.571 15L213.488 15.4017L213.767 16.1549H214.571V15ZM218.429 15V16.1549H219.233L219.512 15.4017L218.429 15ZM218.085 30L219.185 29.6489L218.928 28.8451H218.085V30ZM214.915 30V28.8451H214.072L213.815 29.6489L214.915 30ZM98.0846 30L99.1848 29.6489L98.9283 28.8451H98.0846V30ZM94.9154 30V28.8451H94.0717L93.8152 29.6489L94.9154 30ZM23 -1.15486C9.65964 -1.15486 -1.15486 9.65964 -1.15486 23H1.15486C1.15486 10.9353 10.9353 1.15486 23 1.15486V-1.15486ZM73 -1.15486H23V1.15486H73V-1.15486ZM95.6533 14.5983C92.2411 5.40168 83.3877 -1.15486 73 -1.15486V1.15486C82.391 1.15486 90.4007 7.08114 93.4878 15.4017L95.6533 14.5983ZM98.4295 13.8451H94.5705V16.1549H98.4295V13.8451ZM120 -1.15486C109.612 -1.15486 100.759 5.40168 97.3467 14.5983L99.5122 15.4017C102.599 7.08114 110.609 1.15486 120 1.15486V-1.15486ZM193 -1.15486H120V1.15486H193V-1.15486ZM215.653 14.5983C212.241 5.40168 203.388 -1.15486 193 -1.15486V1.15486C202.391 1.15486 210.401 7.08114 213.488 15.4017L215.653 14.5983ZM214.571 16.1549H218.429V13.8451H214.571V16.1549ZM219.512 15.4017C222.599 7.08114 230.609 1.15486 240 1.15486V-1.15486C229.612 -1.15486 220.759 5.40168 217.347 14.5983L219.512 15.4017ZM240 1.15486H306V-1.15486H240V1.15486ZM306 1.15486C318.065 1.15486 327.845 10.9353 327.845 23H330.155C330.155 9.65964 319.34 -1.15486 306 -1.15486V1.15486ZM327.845 23C327.845 35.0647 318.065 44.8451 306 44.8451V47.1549C319.34 47.1549 330.155 36.3404 330.155 23H327.845ZM306 44.8451H240V47.1549H306V44.8451ZM240 44.8451C230.255 44.8451 221.998 38.4637 219.185 29.6489L216.984 30.3511C220.094 40.0956 229.221 47.1549 240 47.1549V44.8451ZM218.085 28.8451H214.915V31.1549H218.085V28.8451ZM193 47.1549C203.779 47.1549 212.906 40.0956 216.016 30.3511L213.815 29.6489C211.002 38.4637 202.745 44.8451 193 44.8451V47.1549ZM120 47.1549H193V44.8451H120V47.1549ZM96.9844 30.3511C100.094 40.0956 109.221 47.1549 120 47.1549V44.8451C110.255 44.8451 101.998 38.4637 99.1848 29.6489L96.9844 30.3511ZM94.9154 31.1549H98.0846V28.8451H94.9154V31.1549ZM73 47.1549C83.7788 47.1549 92.9057 40.0956 96.0156 30.3511L93.8152 29.6489C91.002 38.4637 82.7447 44.8451 73 44.8451V47.1549ZM23 47.1549H73V44.8451H23V47.1549ZM-1.15486 23C-1.15486 36.3404 9.65964 47.1549 23 47.1549V44.8451C10.9353 44.8451 1.15486 35.0647 1.15486 23H-1.15486Z" fill="#F1F1F1" mask="url(#path-1-inside-1_411_51)"/>
</svg>
